<svg xmlns="http://www.w3.org/2000/svg" width="1024" height="1024"><script/><path stroke-width="4.163" d="M417.615 76.875c-42.392 9.424-84.326 22.545-123.642 42.334.899 34.716 3.143 67.98 7.693 101.768-15.268 9.782-31.315 18.177-45.576 29.628-14.49 11.148-29.29 21.813-42.41 34.85-26.212-17.337-53.955-33.63-82.535-48.012C100.337 270.6 71.53 306.383 48 346.428c18.493 29.029 38.33 58.205 56.7 80.959v245.765c.449.005.898.021 1.343.063l150.67 14.527a16.223 16.223 0 0 1 14.627 15.024l4.646 66.51 131.43 9.378 9.055-61.386a16.222 16.222 0 0 1 16.05-13.858h158.961c8.047 0 14.873 5.899 16.047 13.858l9.055 61.386 131.434-9.379 4.642-66.51a16.23 16.23 0 0 1 14.627-15.023l150.611-14.527c.446-.042.89-.058 1.34-.063v-19.611l.063-.02V427.387c21.216-26.71 41.307-56.172 56.699-80.96-23.523-40.044-52.345-75.828-83.152-108.984-28.573 14.382-56.325 30.675-82.537 48.012-13.117-13.037-27.89-23.702-42.4-34.85-14.258-11.45-30.324-19.846-45.563-29.628 4.537-33.788 6.78-67.052 7.683-101.768-39.32-19.79-81.249-32.91-123.662-42.334-16.933 28.46-32.42 59.28-45.906 89.408-15.993-2.672-32.06-3.662-48.149-3.853v-.026c-.112 0-.216.026-.312.026-.1 0-.205-.026-.305-.026v.026c-16.117.191-32.17 1.18-48.168 3.853-13.478-30.129-28.955-60.948-45.914-89.408zM298.416 436.398c50.151 0 90.799 40.618 90.799 90.752 0 50.168-40.648 90.809-90.799 90.809-50.126 0-90.787-40.64-90.787-90.809 0-50.134 40.66-90.752 90.787-90.752zm427.178 0c50.122 0 90.779 40.618 90.779 90.752 0 50.168-40.657 90.809-90.78 90.809-50.159 0-90.806-40.64-90.806-90.809 0-50.134 40.647-90.752 90.807-90.752zm-213.6 53.11c16.143 0 29.254 11.908 29.254 26.56v83.59c0 14.665-13.111 26.563-29.254 26.563-16.142 0-29.226-11.898-29.226-26.563v-83.59c0-14.652 13.084-26.56 29.226-26.56z"/><path fill="#010102" d="m784.071 718.723-4.666 66.864c-.562 8.059-6.972 14.474-15.031 15.052l-160.49 11.451c-.39.03-.782.042-1.17.042-7.975 0-14.856-5.853-16.034-13.861l-9.203-62.415H446.525l-9.203 62.415c-1.237 8.4-8.746 14.44-17.204 13.82l-160.49-11.452c-8.059-.578-14.469-6.993-15.03-15.052l-4.667-66.864-135.48-13.062c.062 14.56.249 30.512.249 33.688 0 143.085 181.51 211.86 407.024 212.651h.554c225.514-.79 406.962-69.566 406.962-212.651 0-3.234.195-19.119.262-33.688z"/><path d="M367.367 532.537c0 33.276-26.97 60.246-60.27 60.246-33.285 0-60.271-26.97-60.271-60.246s26.986-60.27 60.27-60.27c33.301 0 60.27 26.994 60.27 60.27M656.64 532.537c0 33.276 26.962 60.246 60.238 60.246 33.309 0 60.27-26.97 60.27-60.246s-26.961-60.27-60.27-60.27c-33.276 0-60.237 26.994-60.237 60.27"/><script/></svg>