<svg xmlns="http://www.w3.org/2000/svg" width="1024" height="414" viewBox="0 0 960 388.125"><script/><path d="M570.062 153.354c-5.105 0-9.382 2.346-12.852 7.023-3.45 4.68-5.186 11.25-5.186 19.705 0 8.473 1.649 14.96 4.953 19.48 3.298 4.534 7.632 6.792 13.007 6.792 5.373 0 9.737-2.286 13.09-6.874 3.351-4.57 5.031-11.114 5.031-19.632 0-8.512-1.735-15.063-5.193-19.638-3.454-4.57-7.738-6.856-12.85-6.856m-.078 84.112c-14.948 0-27.138-4.891-36.56-14.674-9.409-9.79-14.115-24.077-14.115-42.858 0-18.793 4.76-33.021 14.28-42.71 9.524-9.676 21.817-14.519 36.876-14.519 15.056 0 27.217 4.755 36.468 14.293 9.267 9.519 13.893 23.95 13.893 43.25 0 19.314-4.733 33.68-14.208 43.107-9.476 9.408-21.678 14.111-36.634 14.111M665.564 154.46v47.742c0 2.23.164 3.635.484 4.224.317.587 1.277.881 2.869.881 5.858 0 10.296-2.188 13.33-6.552 3.042-4.358 4.546-11.615 4.546-21.78 0-10.168-1.574-16.793-4.701-19.87-3.143-3.087-8.121-4.645-14.931-4.645zm-30.644 74.073v-95.765c0-2.662.662-4.763 1.998-6.321 1.327-1.534 3.055-2.313 5.19-2.313h26.656c16.916 0 29.765 4.267 38.536 12.78 8.787 8.512 13.18 21.913 13.18 40.22 0 39.162-16.713 58.74-50.128 58.74h-27.29c-5.423 0-8.142-2.442-8.142-7.341M781.763 153.354c-5.106 0-9.394 2.346-12.858 7.023-3.45 4.68-5.178 11.25-5.178 19.705 0 8.473 1.653 14.96 4.947 19.48 3.294 4.534 7.632 6.792 13.007 6.792 5.374 0 9.742-2.286 13.09-6.874 3.353-4.57 5.033-11.114 5.033-19.632 0-8.512-1.732-15.063-5.19-19.638-3.46-4.57-7.738-6.856-12.85-6.856m-.083 84.112c-14.954 0-27.135-4.891-36.548-14.674-9.42-9.79-14.129-24.077-14.129-42.858 0-18.793 4.76-33.021 14.28-42.71 9.53-9.676 21.817-14.519 36.88-14.519 15.06 0 27.211 4.755 36.473 14.293 9.26 9.519 13.887 23.95 13.887 43.25 0 19.314-4.735 33.68-14.21 43.107-9.47 9.408-21.684 14.111-36.633 14.111M892.014 233.33c0 2.115-5.26 3.188-15.8 3.188-10.53 0-15.807-1.073-15.807-3.188v-80.137h-19.15c-1.811 0-3.09-2.441-3.832-7.349a52.894 52.894 0 0 1-.472-7.178c0-2.437.153-4.838.472-7.178.743-4.894 2.02-7.354 3.832-7.354h69.435c1.808 0 3.08 2.46 3.834 7.354.313 2.34.474 4.74.474 7.178 0 2.452-.161 4.843-.474 7.178-.753 4.908-2.026 7.35-3.834 7.35h-18.678zM491.082 176.608c-8.593-.133-18.428 1.658-18.428 1.658v16.772h9.89l-.11 7.477c0 2.77-2.746 4.16-8.222 4.16-5.483 0-10.325-2.321-14.525-6.951-4.21-4.636-6.305-11.413-6.305-20.342 0-8.948 2.046-15.545 6.143-19.802 4.09-4.253 9.449-6.386 16.042-6.386 2.77 0 5.637.446 8.618 1.358 2.983.904 4.975 1.75 5.992 2.544 1.008.815 1.967 1.201 2.873 1.201.902 0 2.362-1.054 4.383-3.188 2.023-2.128 3.835-5.352 5.434-9.652 1.592-4.322 2.39-7.634 2.39-9.984 0-2.332-.051-3.94-.154-4.787-2.236-2.446-6.361-4.386-12.378-5.828-6.006-1.438-12.74-2.152-20.19-2.152-16.391 0-29.209 5.16-38.465 15.481-9.264 10.325-13.887 23.728-13.887 40.226 0 19.37 4.732 34.055 14.196 44.058 9.481 10 21.929 14.996 37.36 14.996 8.3 0 15.666-.714 22.101-2.152 6.443-1.432 10.725-2.902 12.856-4.39l.64-49.95c0-2.903-7.661-4.22-16.254-4.367M457.434 302.81c-.882 1.81-2.504 3.47-4.876 4.97-2.37 1.512-5.38 2.263-9.036 2.263-4.824 0-8.703-1.52-11.65-4.594-2.935-3.05-4.405-7.445-4.405-13.18v-14.303c0-5.611 1.385-9.915 4.165-12.92 2.774-2.98 6.49-4.491 11.13-4.491 4.535 0 8.051 1.193 10.54 3.553 2.48 2.368 3.784 5.676 3.897 9.9l-.062.189h-3.703c-.133-3.238-1.073-5.736-2.841-7.5-1.76-1.75-4.376-2.636-7.832-2.636-3.496 0-6.266 1.184-8.293 3.557-2.022 2.369-3.03 5.801-3.03 10.311v14.385c0 4.676 1.09 8.242 3.267 10.698 2.178 2.437 5.113 3.659 8.817 3.659 2.705 0 4.88-.48 6.506-1.46 1.633-.968 2.766-2.148 3.406-3.55v-12.527h-9.981v-3.482h13.981zM475.77 306.468c2.195 0 4.15-.623 5.858-1.89 1.71-1.272 2.91-2.88 3.62-4.837v-7.731h-6.35c-2.7 0-4.864.765-6.482 2.294-1.624 1.52-2.427 3.42-2.427 5.677 0 1.907.502 3.474 1.519 4.681 1.015 1.212 2.434 1.806 4.261 1.806m10.072 2.884a93.3 93.3 0 0 1-.45-3.031 20.44 20.44 0 0 1-.142-2.41 13.976 13.976 0 0 1-4.213 4.396c-1.727 1.16-3.647 1.736-5.762 1.736-2.957 0-5.232-.916-6.843-2.751-1.6-1.842-2.409-4.325-2.409-7.46 0-3.312 1.164-5.97 3.497-7.942 2.331-1.973 5.5-2.958 9.485-2.958h6.245v-4.391c0-2.525-.645-4.515-1.91-5.953-1.293-1.419-3.068-2.137-5.36-2.137-2.132 0-3.89.677-5.27 2.05-1.376 1.364-2.06 3.031-2.06 5.017l-3.708-.032-.065-.194c-.104-2.694.915-5.077 3.065-7.188 2.142-2.105 4.89-3.151 8.236-3.151 3.305 0 5.966 1.005 7.998 3.009 2.02 2.023 3.034 4.907 3.034 8.658v17.526c0 1.276.06 2.516.17 3.7.115 1.198.3 2.353.59 3.506zM501.663 273.617l.34 5.547c.938-1.985 2.196-3.515 3.756-4.602 1.565-1.073 3.407-1.61 5.522-1.61 2.159 0 3.979.628 5.446 1.9 1.47 1.266 2.552 3.183 3.24 5.76.881-2.379 2.128-4.258 3.747-5.618 1.619-1.363 3.583-2.041 5.858-2.041 3.134 0 5.566 1.268 7.29 3.806 1.73 2.543 2.592 6.445 2.592 11.717v20.875h-3.991v-20.944c0-4.383-.607-7.469-1.786-9.243-1.186-1.778-2.887-2.672-5.087-2.672-2.314 0-4.12.976-5.42 2.963-1.292 1.986-2.09 4.469-2.38 7.468V309.35h-3.971V288.43c0-4.28-.6-7.344-1.827-9.173-1.221-1.83-2.92-2.737-5.102-2.737-2.086 0-3.772.636-5.036 1.897-1.273 1.268-2.177 3.004-2.726 5.207v25.727h-3.967v-35.734zM559.278 276.45c-2.485 0-4.527 1.134-6.127 3.396-1.602 2.271-2.429 5.069-2.495 8.404h16.485v-1.53c0-2.949-.692-5.405-2.077-7.353-1.394-1.95-3.318-2.917-5.786-2.917m.562 33.593c-3.853 0-7.004-1.45-9.452-4.345-2.44-2.888-3.663-6.584-3.663-11.086v-5.934c0-4.51 1.226-8.27 3.679-11.26 2.459-2.977 5.412-4.465 8.874-4.465 3.744 0 6.644 1.327 8.715 3.99 2.076 2.669 3.112 6.253 3.112 10.75v3.92h-20.45v2.972c0 3.46.83 6.34 2.478 8.639 1.65 2.304 3.895 3.447 6.707 3.447 1.954 0 3.654-.345 5.073-1.024a10.452 10.452 0 0 0 3.644-2.943l1.625 2.81c-1.079 1.369-2.477 2.474-4.184 3.294-1.702.816-3.759 1.235-6.158 1.235M603.35 276.45c-2.492 0-4.538 1.134-6.137 3.396-1.592 2.271-2.42 5.069-2.492 8.404h16.489v-1.53c0-2.949-.69-5.405-2.084-7.353-1.387-1.95-3.31-2.917-5.775-2.917m.557 33.593c-3.854 0-7-1.45-9.443-4.345-2.45-2.888-3.676-6.584-3.676-11.086v-5.934c0-4.51 1.231-8.27 3.679-11.26 2.465-2.977 5.42-4.465 8.883-4.465 3.736 0 6.649 1.327 8.714 3.99 2.069 2.669 3.107 6.253 3.107 10.75v3.92H594.72v2.972c0 3.46.83 6.34 2.488 8.639 1.643 2.304 3.877 3.447 6.699 3.447 1.96 0 3.654-.345 5.068-1.024a10.555 10.555 0 0 0 3.66-2.943l1.614 2.81c-1.08 1.369-2.474 2.474-4.184 3.294-1.702.816-3.758 1.235-6.158 1.235M625.646 273.617l.325 5.907c.953-2.097 2.211-3.724 3.792-4.856 1.567-1.138 3.412-1.715 5.534-1.715 3.192 0 5.638 1.18 7.336 3.553 1.716 2.368 2.566 6.05 2.566 11.044v21.801h-3.994v-21.764c0-4.083-.598-6.935-1.787-8.589-1.182-1.654-2.92-2.478-5.182-2.478-2.028 0-3.73.659-5.094 1.999-1.37 1.328-2.39 3.096-3.07 5.326v25.506h-3.966v-35.734zM656.836 294.613c0 3.626.687 6.51 2.08 8.656 1.378 2.166 3.475 3.235 6.272 3.235 1.918 0 3.532-.51 4.857-1.556 1.32-1.047 2.364-2.503 3.136-4.35v-17.702c-.742-1.903-1.762-3.44-3.05-4.626-1.286-1.165-2.915-1.75-4.875-1.75-2.792 0-4.903 1.216-6.305 3.658-1.413 2.446-2.115 5.635-2.115 9.551zm-4.006-4.884c0-5.064 1.022-9.131 3.078-12.197 2.039-3.05 4.875-4.579 8.489-4.579 2.006 0 3.766.49 5.27 1.47 1.508.963 2.753 2.373 3.753 4.165l.387-4.97h3.366v35.766c0 4.58-1.061 8.128-3.195 10.64-2.136 2.5-5.17 3.767-9.088 3.767-1.408 0-2.922-.22-4.541-.649-1.622-.428-3.057-.991-4.315-1.696l1.097-3.483a13.262 13.262 0 0 0 3.603 1.613c1.317.392 2.679.58 4.091.58 2.84 0 4.946-.912 6.306-2.731 1.365-1.844 2.05-4.51 2.05-8.04v-4.323c-1.014 1.61-2.258 2.843-3.733 3.696-1.469.857-3.185 1.285-5.12 1.285-3.59 0-6.405-1.405-8.438-4.216-2.038-2.805-3.06-6.547-3.06-11.214zM690.529 309.352h-4.001v-35.734h4.001zm0-45.908h-4.001v-5.63h4.001zM703.442 273.617l.325 5.907c.956-2.097 2.209-3.724 3.787-4.856 1.576-1.138 3.424-1.715 5.536-1.715 3.193 0 5.648 1.18 7.35 3.553 1.713 2.368 2.555 6.05 2.555 11.044v21.801h-3.994v-21.764c0-4.083-.596-6.935-1.783-8.589-1.191-1.654-2.916-2.478-5.185-2.478-2.028 0-3.726.659-5.089 1.999-1.367 1.328-2.392 3.096-3.07 5.326v25.506h-3.97v-35.734zM742.886 276.45c-2.493 0-4.535 1.134-6.127 3.396-1.597 2.271-2.43 5.069-2.5 8.404h16.488v-1.53c0-2.949-.687-5.405-2.078-7.353-1.387-1.95-3.313-2.917-5.783-2.917m.567 33.593c-3.864 0-7.01-1.45-9.446-4.345-2.446-2.888-3.669-6.584-3.669-11.086v-5.934c0-4.51 1.223-8.27 3.676-11.26 2.459-2.977 5.417-4.465 8.872-4.465 3.741 0 6.653 1.327 8.726 3.99 2.067 2.669 3.103 6.253 3.103 10.75v3.92H734.26v2.972c0 3.46.834 6.34 2.484 8.639 1.649 2.304 3.885 3.447 6.71 3.447 1.954 0 3.646-.345 5.059-1.024a10.488 10.488 0 0 0 3.663-2.943l1.621 2.81c-1.087 1.369-2.48 2.474-4.187 3.294-1.701.816-3.758 1.235-6.156 1.235"/><path stroke-width="1.508" d="M170.539 45.892c-14.398 3.2-28.642 7.658-41.995 14.379.305 11.791 1.067 23.089 2.613 34.565-5.186 3.322-10.636 6.174-15.48 10.063-4.922 3.786-9.949 7.408-14.405 11.836-8.903-5.888-18.324-11.422-28.032-16.307-10.463 11.26-20.248 23.416-28.24 37.016 6.281 9.86 13.018 19.77 19.257 27.497V248.416c.153 0 .307.005.458.02l51.174 4.934a5.51 5.51 0 0 1 4.968 5.104l1.578 22.59 44.64 3.185 3.074-20.85a5.512 5.512 0 0 1 5.453-4.708h53.99a5.511 5.511 0 0 1 5.451 4.708l3.075 20.85 44.64-3.186 1.577-22.59a5.513 5.513 0 0 1 4.968-5.103l51.154-4.934a5.45 5.45 0 0 1 .456-.02v-6.662l.022-.005V164.94c7.206-9.071 14.03-19.078 19.257-27.497-7.99-13.6-17.778-25.755-28.242-37.016-9.704 4.885-19.13 10.419-28.033 16.307-4.455-4.428-9.473-8.05-14.402-11.836-4.842-3.89-10.3-6.74-15.476-10.063 1.541-11.476 2.305-22.774 2.611-34.565-13.355-6.721-27.597-11.178-42.002-14.38-5.752 9.667-11.01 20.136-15.592 30.369-5.431-.908-10.888-1.244-16.353-1.31v-.009c-.038 0-.073.01-.106.01-.034 0-.07-.01-.104-.01v.01c-5.475.065-10.927.401-16.36 1.309-4.579-10.233-9.834-20.702-15.594-30.368zm-40.487 122.11c17.034 0 30.84 13.797 30.84 30.825 0 17.04-13.806 30.842-30.84 30.842-17.025 0-30.834-13.803-30.834-30.842 0-17.028 13.81-30.824 30.834-30.824zm145.091 0c17.024 0 30.832 13.797 30.832 30.825 0 17.04-13.808 30.842-30.832 30.842-17.036 0-30.842-13.803-30.842-30.842 0-17.028 13.806-30.824 30.842-30.824zm-72.55 18.039c5.483 0 9.938 4.045 9.938 9.021v28.39c0 4.982-4.455 9.022-9.938 9.022s-9.926-4.04-9.926-9.021v-28.39c0-4.977 4.444-9.022 9.926-9.022z"/><g stroke-width="1.414"><path d="m295.004 263.893-1.585 22.71a5.512 5.512 0 0 1-5.105 5.113l-54.51 3.89a5.51 5.51 0 0 1-5.843-4.694l-3.126-21.2h-44.477l-3.126 21.2a5.507 5.507 0 0 1-5.844 4.693l-54.51-3.89a5.512 5.512 0 0 1-5.105-5.112l-1.584-22.71-46.016-4.436c.021 4.945.085 10.363.085 11.442 0 48.598 61.65 71.957 138.244 72.226h.188c76.595-.269 138.224-23.628 138.224-72.226 0-1.099.066-6.494.089-11.442zM153.472 200.656c0 11.302-9.16 20.462-20.47 20.462-11.306 0-20.471-9.16-20.471-20.462s9.165-20.47 20.47-20.47c11.31 0 20.47 9.168 20.47 20.47M251.723 200.656c0 11.302 9.157 20.462 20.459 20.462 11.313 0 20.47-9.16 20.47-20.462s-9.157-20.47-20.47-20.47c-11.302 0-20.46 9.168-20.46 20.47"/></g><script/></svg>